<svg width="28" height="26" viewBox="0 0 28 26" fill="none" xmlns="http://www.w3.org/2000/svg">
<path d="M8.688 -5.72205e-06V2.19199H5.712V11.232H2.976V2.19199H-2.68221e-06V-5.72205e-06H8.688ZM13.3251 11.36C12.4505 11.36 11.6611 11.1733 10.9571 10.8C10.2638 10.4267 9.71446 9.89333 9.30912 9.19999C8.91446 8.50666 8.71712 7.69599 8.71712 6.76799C8.71712 5.85066 8.91979 5.04533 9.32512 4.35199C9.73046 3.64799 10.2851 3.10933 10.9891 2.73599C11.6931 2.36266 12.4825 2.17599 13.3571 2.17599C14.2318 2.17599 15.0211 2.36266 15.7251 2.73599C16.4291 3.10933 16.9838 3.64799 17.3891 4.35199C17.7945 5.04533 17.9971 5.85066 17.9971 6.76799C17.9971 7.68533 17.7891 8.49599 17.3731 9.19999C16.9678 9.89333 16.4078 10.4267 15.6931 10.8C14.9891 11.1733 14.1998 11.36 13.3251 11.36ZM13.3251 8.99199C13.8478 8.99199 14.2905 8.79999 14.6531 8.41599C15.0265 8.03199 15.2131 7.48266 15.2131 6.76799C15.2131 6.05333 15.0318 5.50399 14.6691 5.11999C14.3171 4.73599 13.8798 4.54399 13.3571 4.54399C12.8238 4.54399 12.3811 4.73599 12.0291 5.11999C11.6771 5.49333 11.5011 6.04266 11.5011 6.76799C11.5011 7.48266 11.6718 8.03199 12.0131 8.41599C12.3651 8.79999 12.8025 8.99199 13.3251 8.99199ZM4.816 14C6 14 7.03466 14.2347 7.92 14.704C8.80533 15.1733 9.488 15.8347 9.968 16.688C10.4587 17.5307 10.704 18.5067 10.704 19.616C10.704 20.7147 10.4587 21.6907 9.968 22.544C9.488 23.3973 8.8 24.0587 7.904 24.528C7.01866 24.9973 5.98933 25.232 4.816 25.232H0.607997V14H4.816ZM4.64 22.864C5.67466 22.864 6.48 22.5813 7.056 22.016C7.632 21.4507 7.92 20.6507 7.92 19.616C7.92 18.5813 7.632 17.776 7.056 17.2C6.48 16.624 5.67466 16.336 4.64 16.336H3.344V22.864H4.64ZM15.497 25.36C14.6223 25.36 13.833 25.1733 13.129 24.8C12.4357 24.4267 11.8863 23.8933 11.481 23.2C11.0863 22.5067 10.889 21.696 10.889 20.768C10.889 19.8507 11.0917 19.0453 11.497 18.352C11.9023 17.648 12.457 17.1093 13.161 16.736C13.865 16.3627 14.6543 16.176 15.529 16.176C16.4037 16.176 17.193 16.3627 17.897 16.736C18.601 17.1093 19.1557 17.648 19.561 18.352C19.9663 19.0453 20.169 19.8507 20.169 20.768C20.169 21.6853 19.961 22.496 19.545 23.2C19.1397 23.8933 18.5797 24.4267 17.865 24.8C17.161 25.1733 16.3717 25.36 15.497 25.36ZM15.497 22.992C16.0197 22.992 16.4623 22.8 16.825 22.416C17.1983 22.032 17.385 21.4827 17.385 20.768C17.385 20.0533 17.2037 19.504 16.841 19.12C16.489 18.736 16.0517 18.544 15.529 18.544C14.9957 18.544 14.553 18.736 14.201 19.12C13.849 19.4933 13.673 20.0427 13.673 20.768C13.673 21.4827 13.8437 22.032 14.185 22.416C14.537 22.8 14.9743 22.992 15.497 22.992ZM23.3805 22.976H27.2525V25.232H20.3245V23.056L24.0365 18.56H20.3565V16.304H27.1725V18.48L23.3805 22.976Z" fill="#3B9FFF"/>
</svg>
