<svg width="48" height="48" viewBox="0 0 48 48" fill="none" xmlns="http://www.w3.org/2000/svg">
<rect width="48" height="48" fill="#682860"/>
<path d="M15.4172 1.91202V5.63717H10.3597V21H5.71008V5.63717H0.65258V1.91202H15.4172ZM23.2977 21.2175C21.8112 21.2175 20.4698 20.9003 19.2734 20.2658C18.0952 19.6314 17.1616 18.725 16.4728 17.5468C15.8021 16.3685 15.4667 14.9908 15.4667 13.4138C15.4667 11.8548 15.8111 10.4862 16.5 9.30793C17.1888 8.11154 18.1314 7.19611 19.3278 6.56166C20.5242 5.9272 21.8656 5.60998 23.3521 5.60998C24.8385 5.60998 26.1799 5.9272 27.3763 6.56166C28.5727 7.19611 29.5153 8.11154 30.2042 9.30793C30.893 10.4862 31.2374 11.8548 31.2374 13.4138C31.2374 14.9727 30.8839 16.3504 30.177 17.5468C29.4881 18.725 28.5364 19.6314 27.3219 20.2658C26.1255 20.9003 24.7841 21.2175 23.2977 21.2175ZM23.2977 17.1933C24.1859 17.1933 24.9382 16.867 25.5545 16.2144C26.189 15.5618 26.5062 14.6283 26.5062 13.4138C26.5062 12.1992 26.198 11.2657 25.5817 10.6131C24.9835 9.96051 24.2403 9.63422 23.3521 9.63422C22.4457 9.63422 21.6934 9.96051 21.0952 10.6131C20.497 11.2475 20.1979 12.1811 20.1979 13.4138C20.1979 14.6283 20.488 15.5618 21.068 16.2144C21.6662 16.867 22.4094 17.1933 23.2977 17.1933ZM8.83703 25.912C10.8492 25.912 12.6075 26.3108 14.1121 27.1084C15.6166 27.906 16.7768 29.0299 17.5925 30.4801C18.4263 31.9121 18.8433 33.5708 18.8433 35.456C18.8433 37.3231 18.4263 38.9818 17.5925 40.4319C16.7768 41.8821 15.6076 43.006 14.0849 43.8036C12.5803 44.6012 10.831 45 8.83703 45H1.68583V25.912H8.83703ZM8.53793 40.9758C10.2963 40.9758 11.6649 40.4954 12.6437 39.5346C13.6226 38.5739 14.1121 37.2144 14.1121 35.456C14.1121 33.6977 13.6226 32.3291 12.6437 31.3502C11.6649 30.3713 10.2963 29.8819 8.53793 29.8819H6.33547V40.9758H8.53793ZM26.9886 45.2175C25.5022 45.2175 24.1608 44.9003 22.9644 44.2658C21.7861 43.6314 20.8526 42.725 20.1637 41.5468C19.493 40.3685 19.1577 38.9908 19.1577 37.4138C19.1577 35.8548 19.5021 34.4862 20.1909 33.3079C20.8797 32.1115 21.8224 31.1961 23.0188 30.5617C24.2152 29.9272 25.5566 29.61 27.043 29.61C28.5294 29.61 29.8709 29.9272 31.0672 30.5617C32.2636 31.1961 33.2063 32.1115 33.8951 33.3079C34.5839 34.4862 34.9284 35.8548 34.9284 37.4138C34.9284 38.9727 34.5749 40.3504 33.8679 41.5468C33.1791 42.725 32.2274 43.6314 31.0129 44.2658C29.8165 44.9003 28.4751 45.2175 26.9886 45.2175ZM26.9886 41.1933C27.8769 41.1933 28.6291 40.867 29.2455 40.2144C29.8799 39.5618 30.1971 38.6283 30.1971 37.4138C30.1971 36.1992 29.889 35.2657 29.2727 34.6131C28.6745 33.9605 27.9312 33.6342 27.043 33.6342C26.1366 33.6342 25.3844 33.9605 24.7862 34.6131C24.188 35.2475 23.8889 36.1811 23.8889 37.4138C23.8889 38.6283 24.1789 39.5618 24.759 40.2144C25.3572 40.867 26.1004 41.1933 26.9886 41.1933ZM40.3861 41.1661H46.9662V45H35.1926V41.302L41.5009 33.6614H35.247V29.8275H46.8303V33.5255L40.3861 41.1661Z" fill="#F8F8FF"/>
</svg>
