<svg width="213" height="72" viewBox="0 0 213 72" fill="none" xmlns="http://www.w3.org/2000/svg">
<mask id="mask0_13_199" style="mask-type:luminance" maskUnits="userSpaceOnUse" x="2" y="17" width="44" height="39">
<path d="M20 22H44M20 36H44M20 50H44M5 19L11 25M11 19L5 25" stroke="white" stroke-width="4" stroke-linecap="round" stroke-linejoin="round"/>
<path d="M8 40C10.2091 40 12 38.2091 12 36C12 33.7909 10.2091 32 8 32C5.79086 32 4 33.7909 4 36C4 38.2091 5.79086 40 8 40Z" fill="#555555" stroke="white" stroke-width="4" stroke-linecap="round" stroke-linejoin="round"/>
<path d="M8 54C10.2091 54 12 52.2091 12 50C12 47.7909 10.2091 46 8 46C5.79086 46 4 47.7909 4 50C4 52.2091 5.79086 54 8 54Z" fill="#555555" stroke="white" stroke-width="4" stroke-linecap="round" stroke-linejoin="round"/>
</mask>
<g mask="url(#mask0_13_199)">
<path d="M0 12H48V60H0V12Z" fill="#3B9FFF"/>
</g>
<path d="M91.6301 19.304V25.88H82.7021V53H74.4941V25.88H65.5661V19.304H91.6301ZM107.941 53.384C105.317 53.384 102.949 52.824 100.837 51.704C98.7574 50.584 97.1094 48.984 95.8934 46.904C94.7094 44.824 94.1174 42.392 94.1174 39.608C94.1174 36.856 94.7254 34.44 95.9414 32.36C97.1574 30.248 98.8214 28.632 100.933 27.512C103.045 26.392 105.413 25.832 108.037 25.832C110.661 25.832 113.029 26.392 115.141 27.512C117.253 28.632 118.917 30.248 120.133 32.36C121.349 34.44 121.957 36.856 121.957 39.608C121.957 42.36 121.333 44.792 120.085 46.904C118.869 48.984 117.189 50.584 115.045 51.704C112.933 52.824 110.565 53.384 107.941 53.384ZM107.941 46.28C109.509 46.28 110.837 45.704 111.925 44.552C113.045 43.4 113.605 41.752 113.605 39.608C113.605 37.464 113.061 35.816 111.973 34.664C110.917 33.512 109.605 32.936 108.037 32.936C106.437 32.936 105.109 33.512 104.053 34.664C102.997 35.784 102.469 37.432 102.469 39.608C102.469 41.752 102.981 43.4 104.005 44.552C105.061 45.704 106.373 46.28 107.941 46.28ZM138.936 19.304C142.488 19.304 145.592 20.008 148.248 21.416C150.904 22.824 152.952 24.808 154.392 27.368C155.864 29.896 156.6 32.824 156.6 36.152C156.6 39.448 155.864 42.376 154.392 44.936C152.952 47.496 150.888 49.48 148.2 50.888C145.544 52.296 142.456 53 138.936 53H126.312V19.304H138.936ZM138.408 45.896C141.512 45.896 143.928 45.048 145.656 43.352C147.384 41.656 148.248 39.256 148.248 36.152C148.248 33.048 147.384 30.632 145.656 28.904C143.928 27.176 141.512 26.312 138.408 26.312H134.52V45.896H138.408ZM173.379 53.384C170.755 53.384 168.387 52.824 166.275 51.704C164.195 50.584 162.547 48.984 161.331 46.904C160.147 44.824 159.555 42.392 159.555 39.608C159.555 36.856 160.163 34.44 161.379 32.36C162.595 30.248 164.259 28.632 166.371 27.512C168.483 26.392 170.851 25.832 173.475 25.832C176.099 25.832 178.467 26.392 180.579 27.512C182.691 28.632 184.355 30.248 185.571 32.36C186.787 34.44 187.395 36.856 187.395 39.608C187.395 42.36 186.771 44.792 185.523 46.904C184.307 48.984 182.627 50.584 180.483 51.704C178.371 52.824 176.003 53.384 173.379 53.384ZM173.379 46.28C174.947 46.28 176.275 45.704 177.363 44.552C178.483 43.4 179.043 41.752 179.043 39.608C179.043 37.464 178.499 35.816 177.411 34.664C176.355 33.512 175.043 32.936 173.475 32.936C171.875 32.936 170.547 33.512 169.491 34.664C168.435 35.784 167.907 37.432 167.907 39.608C167.907 41.752 168.419 43.4 169.443 44.552C170.499 45.704 171.811 46.28 173.379 46.28ZM199.429 46.232H211.045V53H190.261V46.472L201.397 32.984H190.357V26.216H210.805V32.744L199.429 46.232Z" fill="#3B9FFF"/>
</svg>
