<svg width="48" height="48" viewBox="0 0 48 48" fill="none" xmlns="http://www.w3.org/2000/svg">
<g clip-path="url(#clip0_13_200)">
<rect width="48" height="48" fill="#682860"/>
<mask id="mask0_13_200" style="mask-type:luminance" maskUnits="userSpaceOnUse" x="2" y="5" width="44" height="39">
<path d="M20 10H44M20 24H44M20 38H44M5 7L11 13M11 7L5 13" stroke="white" stroke-width="4" stroke-linecap="round" stroke-linejoin="round"/>
<path d="M8 28C10.2091 28 12 26.2091 12 24C12 21.7909 10.2091 20 8 20C5.79086 20 4 21.7909 4 24C4 26.2091 5.79086 28 8 28Z" fill="#555555" stroke="white" stroke-width="4" stroke-linecap="round" stroke-linejoin="round"/>
<path d="M8 42C10.2091 42 12 40.2091 12 38C12 35.7909 10.2091 34 8 34C5.79086 34 4 35.7909 4 38C4 40.2091 5.79086 42 8 42Z" fill="#555555" stroke="white" stroke-width="4" stroke-linecap="round" stroke-linejoin="round"/>
</mask>
<g mask="url(#mask0_13_200)">
<path d="M0 0H48V48H0V0Z" fill="#F8F8FF"/>
</g>
</g>
<defs>
<clipPath id="clip0_13_200">
<rect width="48" height="48" fill="white"/>
</clipPath>
</defs>
</svg>
