<svg width="68" height="32" viewBox="0 0 68 32" fill="none" xmlns="http://www.w3.org/2000/svg">
<g clip-path="url(#clip0_24_844)">
<mask id="mask0_24_844" style="mask-type:luminance" maskUnits="userSpaceOnUse" x="0" y="2" width="32" height="28">
<path d="M13.3333 6.66666H29.3333M13.3333 16H29.3333M13.3333 25.3333H29.3333M3.33333 4.66666L7.33333 8.66666M7.33333 4.66666L3.33333 8.66666" stroke="white" stroke-width="4" stroke-linecap="round" stroke-linejoin="round"/>
<path d="M5.33333 18.6666C6.80609 18.6666 8 17.4727 8 16C8 14.5272 6.80609 13.3333 5.33333 13.3333C3.86057 13.3333 2.66667 14.5272 2.66667 16C2.66667 17.4727 3.86057 18.6666 5.33333 18.6666Z" fill="#555555" stroke="white" stroke-width="4" stroke-linecap="round" stroke-linejoin="round"/>
<path d="M5.33333 28C6.80609 28 8 26.8061 8 25.3333C8 23.8606 6.80609 22.6667 5.33333 22.6667C3.86057 22.6667 2.66667 23.8606 2.66667 25.3333C2.66667 26.8061 3.86057 28 5.33333 28Z" fill="#555555" stroke="white" stroke-width="4" stroke-linecap="round" stroke-linejoin="round"/>
</mask>
<g mask="url(#mask0_24_844)">
<path d="M0 0H32V32H0V0Z" fill="#3B9FFF"/>
</g>
<path d="M47.072 2.768V4.96H44.096V14H41.36V4.96H38.384V2.768H47.072ZM52.1891 14.128C51.3145 14.128 50.5251 13.9413 49.8211 13.568C49.1278 13.1947 48.5785 12.6613 48.1731 11.968C47.7785 11.2747 47.5811 10.464 47.5811 9.536C47.5811 8.61867 47.7838 7.81333 48.1891 7.12C48.5945 6.416 49.1491 5.87733 49.8531 5.504C50.5571 5.13067 51.3465 4.944 52.2211 4.944C53.0958 4.944 53.8851 5.13067 54.5891 5.504C55.2931 5.87733 55.8478 6.416 56.2531 7.12C56.6585 7.81333 56.8611 8.61867 56.8611 9.536C56.8611 10.4533 56.6531 11.264 56.2371 11.968C55.8318 12.6613 55.2718 13.1947 54.5571 13.568C53.8531 13.9413 53.0638 14.128 52.1891 14.128ZM52.1891 11.76C52.7118 11.76 53.1545 11.568 53.5171 11.184C53.8905 10.8 54.0771 10.2507 54.0771 9.536C54.0771 8.82133 53.8958 8.272 53.5331 7.888C53.1811 7.504 52.7438 7.312 52.2211 7.312C51.6878 7.312 51.2451 7.504 50.8931 7.888C50.5411 8.26133 50.3651 8.81067 50.3651 9.536C50.3651 10.2507 50.5358 10.8 50.8771 11.184C51.2291 11.568 51.6665 11.76 52.1891 11.76ZM43.2 18.768C44.384 18.768 45.4187 19.0027 46.304 19.472C47.1893 19.9413 47.872 20.6027 48.352 21.456C48.8427 22.2987 49.088 23.2747 49.088 24.384C49.088 25.4827 48.8427 26.4587 48.352 27.312C47.872 28.1653 47.184 28.8267 46.288 29.296C45.4027 29.7653 44.3733 30 43.2 30H38.992V18.768H43.2ZM43.024 27.632C44.0587 27.632 44.864 27.3493 45.44 26.784C46.016 26.2187 46.304 25.4187 46.304 24.384C46.304 23.3493 46.016 22.544 45.44 21.968C44.864 21.392 44.0587 21.104 43.024 21.104H41.728V27.632H43.024ZM54.361 30.128C53.4863 30.128 52.697 29.9413 51.993 29.568C51.2997 29.1947 50.7503 28.6613 50.345 27.968C49.9503 27.2747 49.753 26.464 49.753 25.536C49.753 24.6187 49.9557 23.8133 50.361 23.12C50.7663 22.416 51.321 21.8773 52.025 21.504C52.729 21.1307 53.5183 20.944 54.393 20.944C55.2677 20.944 56.057 21.1307 56.761 21.504C57.465 21.8773 58.0197 22.416 58.425 23.12C58.8303 23.8133 59.033 24.6187 59.033 25.536C59.033 26.4533 58.825 27.264 58.409 27.968C58.0037 28.6613 57.4437 29.1947 56.729 29.568C56.025 29.9413 55.2357 30.128 54.361 30.128ZM54.361 27.76C54.8837 27.76 55.3263 27.568 55.689 27.184C56.0623 26.8 56.249 26.2507 56.249 25.536C56.249 24.8213 56.0677 24.272 55.705 23.888C55.353 23.504 54.9157 23.312 54.393 23.312C53.8597 23.312 53.417 23.504 53.065 23.888C52.713 24.2613 52.537 24.8107 52.537 25.536C52.537 26.2507 52.7077 26.8 53.049 27.184C53.401 27.568 53.8383 27.76 54.361 27.76ZM62.7245 27.744H66.5965V30H59.6685V27.824L63.3805 23.328H59.7005V21.072H66.5165V23.248L62.7245 27.744Z" fill="#3B9FFF"/>
</g>
<defs>
<clipPath id="clip0_24_844">
<rect width="68" height="32" fill="white"/>
</clipPath>
</defs>
</svg>
